# xmcd
# Track frame offsets:
# 150
# 13075
# 24125
# 35450
# 49437
# 64750
# 76387
# 88937
# 100437
# 114650
# 127137
# 140300
# 152975
# 165312
# 183162
# 192175
#
# Disc length: 2733 seconds
# Revision: 0
# Processed by: cddbd v1.5.1PL0 Copyright (c) Steve Scherf et al.
# Submitted via: VisiTrax 2.9.10.220 - For more info visit www.synapsa.com
#
DISCID=d50aab10
DTITLE=Various Artist - Country Guy  16 Great Hits
DYEAR=1900
DGENRE=
TTITLE0=B.J. Thomas - I Can't Help It
TTITLE1=Ernie Ashworth - Talk Back Trembling Lips
TTITLE2=Leon Ashley - Laura
TTITLE3=Johnny Carver - Tie A Yellow Ribbon
TTITLE4=Jimmy Dean - P.T. 109
TTITLE5=Don Gibson - I Can't Stop Loving You
TTITLE6=David Houston - My Elusive Dreams
TTITLE7=Hank Locklin - Send Me The Pillow You Dream On
TTITLE8=Bob Luman - Lonely Women Make Good Lovers
TTITLE9=Johnny Paycheck - Take This Job And Shove It
TTITLE10=Porter Wagoner - Carroll County Accident
TTITLE11=Bob Lind - Elusive Butterfly
TTITLE12=Johnny Paycheck - she's all I Got
TTITLE13=Ben Colder - Don't Go Near The Eskimos
TTITLE14=Ned Miller - Invisible Tears
TTITLE15=Bobby Rice - You Lay So Easy On My Mind
EXTD=
EXTT0=
EXTT1=
EXTT2=
EXTT3=
EXTT4=
EXTT5=
EXTT6=
EXTT7=
EXTT8=
EXTT9=
EXTT10=
EXTT11=
EXTT12=
EXTT13=
EXTT14=
EXTT15=
PLAYORDER=
